<svg xmlns="http://www.w3.org/2000/svg" fill="none" viewBox="0 0 78 78"><g filter="url(#a)"><circle cx="37" cy="37" r="30" fill="white"/></g><path fill="#BDBDBD" d="M24 37.23c0 .2.12.47.24.6l6.94 7.36c.32.34.84.38 1.22.04.34-.3.35-.9.04-1.23l-5.57-5.9h22.26a.87.87 0 1 0 0-1.73H26.87l5.57-5.9a.9.9 0 0 0-.04-1.23.87.87 0 0 0-1.22.03l-6.94 7.37c-.2.2-.24.39-.24.6Z"/><defs><filter id="a" width="78" height="78" x="0" y="0" color-interpolation-filters="sRGB" filterUnits="userSpaceOnUse"><feFlood flood-opacity="0" result="BackgroundImageFix"/><feColorMatrix in="SourceAlpha" result="hardAlpha" values="0 0 0 0 0 0 0 0 0 0 0 0 0 0 0 0 0 0 127 0"/><feMorphology in="SourceAlpha" operator="dilate" radius="1" result="effect1_dropShadow_206_249"/><feOffset dx="2" dy="2"/><feGaussianBlur stdDeviation="4"/><feComposite in2="hardAlpha" operator="out"/><feColorMatrix values="0 0 0 0 0 0 0 0 0 0 0 0 0 0 0 0 0 0 0.1 0"/><feBlend in2="BackgroundImageFix" result="effect1_dropShadow_206_249"/><feBlend in="SourceGraphic" in2="effect1_dropShadow_206_249" result="shape"/></filter></defs></svg>