<svg xmlns="http://www.w3.org/2000/svg">
  <defs>
    <style><![CDATA[
      .sprite { display: none; }
      .sprite:target { display: inline; }
    ]]></style>
  </defs>

<g class="sprite" id="point" viewBox="0 0 17 21">
<path fill="#384685" d="M8.5 21c-.2 0-.4-.1-.53-.27L2.3 13A8.62 8.62 0 0 1 .63 7.87a7.88 7.88 0 0 1 15.74 0c0 1.86-.58 3.64-1.67 5.13l-5.67 7.73a.66.66 0 0 1-.53.27Zm0-19.69a6.57 6.57 0 0 0-6.56 6.56c0 1.58.49 3.09 1.42 4.36l5.14 7 5.14-7a7.32 7.32 0 0 0 1.42-4.36A6.57 6.57 0 0 0 8.5 1.32Zm0 9.85a3.29 3.29 0 1 1 0-6.57 3.29 3.29 0 0 1 0 6.57Zm0-5.25a1.97 1.97 0 1 0 0 3.94 1.97 1.97 0 0 0 0-3.94Z"/>
</g>

<g class="sprite" id="chevron" viewBox="0 0 14 14">
<path fill="#000" d="M4.29 5.34 7 8.04l2.71-2.7a.3.3 0 1 1 .41.4L7.21 8.67a.3.3 0 0 1-.42 0L3.88 5.75a.3.3 0 0 1 .41-.41Z"/>
</g>

<g class="sprite" id="logo" viewBox="0 0 189 39">
<path fill="#fbd051" fill-rule="evenodd" d="M19.5 0a19.5 19.5 0 1 1 0 39 19.5 19.5 0 0 1 0-39Z" clip-rule="evenodd"/>
<path d="M12.1 30.64H9.06c-.35 0-.49-.19-.37-.53l6.46-18.48h-4.1c-.3 0-.46-.14-.46-.43V8.83c0-.31.15-.47.47-.47h16.9c.32 0 .47.16.47.47v2.37c0 .29-.15.43-.46.43h-4.1l6.47 18.48c.1.35-.02.53-.38.53H26.9c-.3 0-.47-.13-.53-.38l-1.53-4.7H14.16l-1.52 4.7c-.08.25-.26.38-.53.38Zm20.72-15.39c1.9-.74 4-1.12 6.29-1.12 2.16 0 3.9.57 5.2 1.71 1.3 1.15 1.96 2.85 1.96 5.11v3.43a6.3 6.3 0 0 1-1.93 4.82 6.96 6.96 0 0 1-4.95 1.81 8.25 8.25 0 0 1-3.3-.69v5.77c0 .3-.16.46-.47.46h-2.68c-.3 0-.46-.15-.46-.46V15.75c0-.25.11-.41.34-.5Zm6.26 12.58c2.34 0 3.52-1.14 3.52-3.42v-3.49c0-1.29-.3-2.21-.9-2.77-.6-.56-1.5-.84-2.69-.84a7.9 7.9 0 0 0-2.92.43v9.22c.85.58 1.84.87 2.99.87Zm23.91 2.8h-3.14c-.27 0-.46-.09-.56-.27l-4.86-6.39-1.28 1.37v4.83c0 .31-.15.47-.47.47H50.1c-.31 0-.47-.16-.47-.47v-15.2c0-.3.16-.46.47-.46h2.58c.32 0 .47.15.47.46v6.01l5.58-6.23c.12-.16.3-.24.56-.24h3.14c.2 0 .34.05.4.15.04.1 0 .24-.12.4l-5.88 6.39 6.47 8.63c.23.37.13.56-.3.56Zm15.35-5.91a5.8 5.8 0 0 1-1.93 4.6c-1.28 1.12-3 1.69-5.16 1.69s-3.89-.57-5.17-1.7a5.8 5.8 0 0 1-1.94-4.6v-4.16c0-1.95.65-3.51 1.94-4.67 1.28-1.17 3-1.75 5.17-1.75 2.15 0 3.88.58 5.16 1.75a5.99 5.99 0 0 1 1.93 4.67v4.17Zm-10.55 0c0 2.03 1.15 3.05 3.46 3.05 1.12 0 1.97-.26 2.56-.78.6-.52.9-1.27.9-2.27v-4.17c0-1.02-.31-1.8-.91-2.35a3.65 3.65 0 0 0-2.55-.83c-1.13 0-1.98.27-2.57.81-.6.54-.9 1.33-.9 2.37v4.17Zm17.8 5.92h-2.82c-.3 0-.44-.16-.44-.47V8.84c0-.31.15-.47.44-.47h3.39c.25 0 .42.12.5.34l3.8 7.07c.79 1.48 1.67 3.3 2.64 5.48h.13c.97-2.18 1.86-4 2.65-5.48l3.76-7.07c.13-.22.3-.34.53-.34h3.37c.3 0 .46.16.46.47v21.33c0 .31-.15.47-.46.47h-2.84c-.29 0-.43-.16-.43-.47V23.9c0-2.45.08-5.7.25-9.78l-.1-.03c-.62 1.35-1.55 3.27-2.8 5.76l-2.74 5.33a.54.54 0 0 1-.53.34h-2.37a.54.54 0 0 1-.53-.34l-2.74-5.33c-1.24-2.49-2.18-4.41-2.8-5.76l-.1.03c.17 4.07.26 7.33.26 9.78v6.26c0 .31-.16.47-.47.47Zm36-10.12v3.14c0 .3-.15.44-.46.44h-9.47v.87c0 .93.3 1.64.9 2.13.58.49 1.39.73 2.4.73 1.52 0 2.98-.47 4.4-1.43.24-.17.45-.13.62.1l1.27 1.7c.21.24.18.45-.09.66a9.88 9.88 0 0 1-6.32 2.15 7.54 7.54 0 0 1-4.84-1.57c-1.32-1.05-1.98-2.55-1.98-4.5v-4.42c0-2.14.67-3.74 2-4.8a7.55 7.55 0 0 1 4.85-1.59c1.89 0 3.48.53 4.78 1.59 1.3 1.06 1.95 2.66 1.95 4.8Zm-3.51-.04c0-1.08-.3-1.87-.9-2.4a3.4 3.4 0 0 0-2.3-.77c-2.15 0-3.22 1.06-3.22 3.17v.81h6.42v-.8Zm10.24-4.42a8.24 8.24 0 0 1 3.62-.78c1.97 0 3.57.56 4.8 1.67 1.22 1.11 1.83 2.68 1.83 4.72v2.77c0 2.18-.67 3.82-2.01 4.92a7.61 7.61 0 0 1-5 1.65 7.3 7.3 0 0 1-4.87-1.67c-1.32-1.1-1.98-2.75-1.98-4.93V15a5.7 5.7 0 0 1 1.89-4.52 9.33 9.33 0 0 1 4.46-2.15c2.47-.44 4.04-.82 4.7-1.15.3-.13.5-.07.63.15l1.15 1.96c.13.3.07.5-.16.63-.72.41-2.4.92-5.04 1.52-.58.15-1.07.3-1.46.44-.4.14-.81.35-1.25.62a2.6 2.6 0 0 0-.98 1.06c-.22.44-.33.96-.33 1.56v.93Zm3.21 11.71c.98 0 1.78-.27 2.41-.8.64-.55.95-1.38.95-2.5v-2.74c0-2.24-1.1-3.36-3.3-3.36-1.22 0-2.31.25-3.27.74v5.33c0 1.14.3 1.98.9 2.52.6.54 1.38.81 2.31.81Zm23.48-7.25v3.14c0 .3-.16.44-.47.44h-9.46v.87c0 .93.3 1.64.88 2.13.6.49 1.4.73 2.42.73 1.51 0 2.98-.47 4.39-1.43.25-.17.45-.13.62.1l1.28 1.7c.2.24.18.45-.1.66a9.88 9.88 0 0 1-6.32 2.15 7.54 7.54 0 0 1-4.84-1.57c-1.32-1.05-1.98-2.55-1.98-4.5v-4.42c0-2.14.67-3.74 2-4.8a7.55 7.55 0 0 1 4.85-1.59c1.9 0 3.49.53 4.78 1.59 1.3 1.06 1.95 2.66 1.95 4.8Zm-3.52-.04c0-1.08-.3-1.87-.9-2.4a3.4 3.4 0 0 0-2.3-.77c-2.14 0-3.21 1.06-3.21 3.17v.81h6.41v-.8Zm11.34 4.86c-.4 1.97-1 3.36-1.81 4.16-.8.8-2.1 1.23-3.86 1.3-.3 0-.44-.16-.44-.48v-2.27c0-.27.15-.43.44-.5.6-.04 1.07-.29 1.42-.74.34-.46.62-1.28.85-2.46.35-2.06.61-5.2.78-9.4.04-.3.2-.44.47-.44h10.58c.32 0 .47.14.47.43v15.23c0 .31-.15.47-.47.47h-2.67c-.31 0-.47-.16-.47-.47V17.68h-4.55c-.1 2.97-.35 5.52-.74 7.66Zm19.74 5.3h-6.45c-.3 0-.46-.16-.46-.47V14.94c0-.29.15-.43.46-.43h2.68c.31 0 .47.14.47.43v4.8h3.3a7 7 0 0 1 4.62 1.46 4.98 4.98 0 0 1 1.76 4.05c0 1.85-.56 3.2-1.7 4.08-1.13.87-2.69 1.3-4.68 1.3Zm-3.3-7.94v4.95h2.68c2.24 0 3.36-.82 3.36-2.46.02-.85-.25-1.48-.81-1.89-.56-.4-1.41-.6-2.55-.6h-2.68ZM18.64 11.63l-3.42 10.53h8.56l-3.42-10.53h-1.72Z"/>
</g>

<g class="sprite" id="search" viewBox="0 0 21 21">
<path fill="#a8d1e7" d="M19.771 20.492a.714.714 0 0 1-.506-.21l-8.438-8.44a.716.716 0 1 1 1.013-1.012l8.438 8.439a.716.716 0 0 1-.507 1.223Z"/>
<path fill="#a8d1e7" d="M7.114 13.797a6.66 6.66 0 0 1-4.724-1.954 6.692 6.692 0 0 1 0-9.452A6.637 6.637 0 0 1 7.114.433c1.786 0 3.464.695 4.726 1.958a6.692 6.692 0 0 1 0 9.452 6.66 6.66 0 0 1-4.726 1.954Zm0-11.931c-1.401 0-2.72.546-3.712 1.538a5.258 5.258 0 0 0 0 7.426 5.256 5.256 0 0 0 7.425 0 5.258 5.258 0 0 0 0-7.426 5.215 5.215 0 0 0-3.713-1.538Z"/>
</g>

<g class="sprite" id="phone" viewBox="0 0 20 19">
<path d="M12.9 19c1.54 0 2.91-.52 3.98-1.58l1.55-1.56a2 2 0 0 0 0-2.81l-2.36-2.36a2 2 0 0 0-2.98.19l-1.54 1.98a13.25 13.25 0 0 1-3.1-2.32 13.27 13.27 0 0 1-2.3-3.08l1.99-1.53a1.99 1.99 0 0 0 .19-2.98L5.96.58a1.98 1.98 0 0 0-2.81 0L1.91 1.82l-.33.3C-1.3 5-.17 10.16 4.34 14.66 7.18 17.5 10.27 19 12.9 19ZM2.53 3.07a4.27 4.27 0 0 1 .31-.28L4.1 1.53a.64.64 0 0 1 .92 0L7.38 3.9c.13.14.2.32.19.5a.64.64 0 0 1-.25.48L5.06 6.6a.94.94 0 0 0-.27 1.16c.68 1.35 1.6 2.6 2.72 3.72a14.5 14.5 0 0 0 3.74 2.73c.4.2.89.08 1.16-.27l1.74-2.25a.64.64 0 0 1 .47-.25c.19-.02.37.05.5.19L17.48 14c.25.25.25.66 0 .92l-1.55 1.55c-2.32 2.32-6.7 1.19-10.65-2.76C1.34 9.77.21 5.4 2.53 3.07Z"/>
</g>

<g class="sprite" id="login" viewBox="0 0 17 19">
<path d="M16.12 19H.86a.87.87 0 0 1-.86-.86v-3.12a6.67 6.67 0 0 1 6.7-6.67h3.6a6.7 6.7 0 0 1 6.7 6.67v3.12a.86.86 0 0 1-.88.86Zm-14.4-1.7h13.55v-2.28a4.95 4.95 0 0 0-4.96-4.95H6.69a4.98 4.98 0 0 0-4.96 4.95v2.28Z"/>
<path d="M8.55 9.68a4.88 4.88 0 0 1-4.79-5.8A4.85 4.85 0 0 1 10.41.35a4.87 4.87 0 0 1-1.86 9.33Zm0-7.96a3.13 3.13 0 0 0-3.07 3.73 3.12 3.12 0 0 0 4.26 2.28 3.13 3.13 0 0 0-1.2-6Z"/>
</g>

<g class="sprite" id="favoirite" viewBox="0 0 22 19">
<path d="M11 19a.82.82 0 0 1-.58-.24L1.7 10a5.9 5.9 0 0 1 0-8.3A5.75 5.75 0 0 1 5.82 0c1.46-.04 2.9.56 4.12 1.72L11 2.78l1.06-1.06a5.8 5.8 0 0 1 8.24 0 5.9 5.9 0 0 1 0 8.29l-8.71 8.75A.83.83 0 0 1 11 19ZM5.82 1.66a4.2 4.2 0 0 0-2.94 7.17L11 17l8.13-8.18a4.21 4.21 0 0 0 0-5.93 4.14 4.14 0 0 0-5.9.01L11.6 4.56a.86.86 0 0 1-.59.24.86.86 0 0 1-.58-.24L8.76 2.9a4.13 4.13 0 0 0-2.94-1.24Z"/>
</g>

<g class="sprite" id="cart" viewBox="0 0 24 24">
<path d="M18.43 16.48h-7.76a2.6 2.6 0 0 1-2.54-1.9L4.41 2.39a1 1 0 0 0-.95-.7H.83a.82.82 0 0 1-.58-.25A.84.84 0 0 1 .83 0h2.62A2.6 2.6 0 0 1 6 1.9l.76 2.49h14.58a2.63 2.63 0 0 1 2.22 1.21 2.7 2.7 0 0 1 .21 2.54l-2.92 6.73a2.67 2.67 0 0 1-2.41 1.6ZM7.27 6.06 9.7 14.1a1 1 0 0 0 .96.71h7.76a.99.99 0 0 0 .91-.59l2.92-6.72a1.02 1.02 0 0 0-.44-1.3.99.99 0 0 0-.47-.11L7.27 6.06ZM10.73 24a2.64 2.64 0 0 1-2.47-1.66 2.72 2.72 0 0 1 .58-2.94 2.66 2.66 0 0 1 4.55 1.9c0 .72-.28 1.4-.78 1.91-.5.5-1.18.79-1.88.79Zm0-3.72a1 1 0 0 0-.94.63 1.03 1.03 0 0 0 .22 1.12 1 1 0 0 0 1.73-.73c0-.27-.11-.53-.3-.72a1 1 0 0 0-.71-.3ZM18.21 24a2.64 2.64 0 0 1-2.46-1.66 2.72 2.72 0 0 1 .58-2.94 2.66 2.66 0 0 1 4.55 1.9c0 .72-.28 1.4-.78 1.91-.5.5-1.18.79-1.89.79Zm0-3.72a1 1 0 0 0-.93.63 1.03 1.03 0 0 0 .22 1.12 1 1 0 0 0 1.72-.73c0-.27-.1-.53-.3-.72a1 1 0 0 0-.7-.3Z"/>
</g>

<g class="sprite" id="delivery" viewBox="0 0 55 44">
<path fill="#384685" d="M3.87 39.67h2.25c.5 2.05 2.7 3.61 5.34 3.61 2.64 0 4.85-1.55 5.35-3.6h20c.5 2.04 2.7 3.6 5.34 3.6 2.64 0 4.85-1.55 5.35-3.6h.82c2.77 0 5.03-1.87 5.03-4.15v-2.54a3.55 3.55 0 0 0-.76-2.17l-.13-.19-5.3-6.31a5.42 5.42 0 0 0-4.14-1.8h-9.89v-5.46c0-1.75-1.73-3.19-3.86-3.19H3.86C1.73 13.88 0 15.3 0 17.06v19.43c0 1.76 1.74 3.2 3.87 3.2Zm7.6 1.82c-1.82 0-3.29-1.2-3.29-2.7 0-1.5 1.47-2.7 3.28-2.7 1.8 0 3.27 1.2 3.28 2.69 0 1.5-1.48 2.71-3.28 2.71Zm30.67 0c-1.8 0-3.28-1.2-3.28-2.7 0-1.5 1.46-2.7 3.28-2.7 1.8 0 3.27 1.2 3.28 2.69v.02c0 1.47-1.47 2.7-3.28 2.7Zm3.23-16.16 4.25 5.08h-6.87v-6.09h.27c.93 0 1.81.38 2.35 1.01Zm-4.8-1.01v6.99c0 .49.5.9 1.1.9H51a2 2 0 0 1 .18.78v2.54c0 1.3-1.28 2.35-2.86 2.35h-.83c-.5-2.05-2.7-3.6-5.34-3.6-2.64 0-4.84 1.56-5.35 3.6h-3.87c.12-.28.2-.57.2-.89V24.32h7.44Zm-38.4-7.27c0-.77.76-1.4 1.69-1.4h25.4c.93 0 1.69.63 1.69 1.4V37c0 .5-.48.9-1.08.9H16.81c-.52-2.06-2.7-3.6-5.35-3.6-2.64 0-4.83 1.55-5.34 3.6H3.87c-.94 0-1.7-.64-1.7-1.4V17.04ZM43.99 0c-5.7 0-10.33 3.82-10.33 8.52 0 4.7 4.62 8.52 10.33 8.52 5.69 0 10.33-3.82 10.33-8.52 0-4.7-4.63-8.52-10.33-8.52Zm0 15.24c-4.5 0-8.16-3.02-8.16-6.73 0-3.7 3.66-6.73 8.16-6.73s8.16 3.03 8.16 6.74c0 3.7-3.67 6.72-8.16 6.72Z"/>
<path fill="#384685" d="M46.98 7.62h-1.9v-2.5c0-.5-.48-.9-1.08-.9-.6 0-1.09.4-1.09.9v3.4c0 .5.49.9 1.09.9h2.99c.6 0 1.08-.4 1.08-.9s-.49-.9-1.09-.9Z"/>
</g>

<g class="sprite" id="price" viewBox="0 0 42 42">
<path fill="#384685" d="M11.51 30.49a1.17 1.17 0 0 1 0-1.65l1.15-1.15a5.9 5.9 0 0 1-.95-2.4l-.12-.79a1.17 1.17 0 1 1 2.3-.34l.13.79a3.8 3.8 0 0 0 2.03 2.74c.78.39 1.52.38 2.03-.02.55-.43.72-1.24.47-2.16L17.3 21c-.5-1.83-.01-3.6 1.28-4.62 1.22-.95 2.9-1.05 4.49-.28.25.13.5.27.73.44l1.14-1.14a1.17 1.17 0 0 1 1.65 1.65l-1.15 1.15c.49.72.81 1.54.95 2.4l.12.8a1.17 1.17 0 0 1-2.31.33l-.12-.79a3.8 3.8 0 0 0-2.03-2.74c-.79-.38-1.52-.38-2.03.02-.55.43-.72 1.24-.47 2.16l1.25 4.5c.5 1.83.01 3.6-1.28 4.62-1.22.95-2.9 1.06-4.49.28-.26-.12-.5-.27-.74-.43l-1.13 1.13c-.45.46-1.2.46-1.65 0ZM.91 26.97a3.12 3.12 0 0 1 0-4.41L19.17 4.29c.9-.87 1.89-1.63 2.96-2.27a12.63 12.63 0 0 1 15.98 1.87 12.63 12.63 0 0 1 1.88 15.98 16.12 16.12 0 0 1-2.28 2.96L19.44 41.09a3.12 3.12 0 0 1-4.4 0L.9 26.97Zm1.65-1.65 14.12 14.12c.31.3.8.3 1.11 0l18.27-18.26c.74-.77 1.39-1.62 1.94-2.53 3.24-5.3 1.2-10.37-1.54-13.1C33.72 2.8 28.64.74 23.36 4c-.92.55-1.77 1.2-2.54 1.94L2.56 24.21c-.3.3-.3.8 0 1.1Zm25.7-11.57a3.93 3.93 0 1 1 5.56-5.56 3.93 3.93 0 0 1-5.57 5.56Zm1.31-1.32A2.07 2.07 0 1 0 32.5 9.5a2.07 2.07 0 0 0-2.92 2.93Z"/>
</g>

<g class="sprite" id="garanty" viewBox="0 0 50 48">
<path fill="#384685" d="m49.04 23.58-3.34-4.4 1.11-5.41a.7.7 0 0 0-.37-.76l-4.92-2.5-1.35-5.36a.7.7 0 0 0-.66-.53L34 4.5 30.45.25a.7.7 0 0 0-.83-.19l-5.03 2.3-5.03-2.3a.7.7 0 0 0-.82.2L15.2 4.5l-5.52.12a.7.7 0 0 0-.66.52L7.67 10.5 2.75 13a.7.7 0 0 0-.37.76l1.11 5.42-3.35 4.4a.7.7 0 0 0 0 .84l3.35 4.4-1.11 5.41a.7.7 0 0 0 .36.76l4.93 2.5 1.35 5.36c.07.3.34.52.66.53l5.52.12 3.54 4.25a.7.7 0 0 0 .82.19l5.03-2.3 5.03 2.3a.7.7 0 0 0 .83-.2l3.54-4.24 5.52-.12a.7.7 0 0 0 .66-.52l1.34-5.36 4.93-2.5a.7.7 0 0 0 .37-.76l-1.11-5.42 3.35-4.4a.7.7 0 0 0 0-.84Zm-4.64 4.65a.7.7 0 0 0-.13.56l1.07 5.2-4.74 2.4a.7.7 0 0 0-.36.46L38.94 42l-5.3.12c-.2 0-.4.1-.52.25l-3.4 4.08-4.84-2.2a.71.71 0 0 0-.57 0l-4.84 2.2-3.4-4.08a.69.69 0 0 0-.52-.25L10.24 42l-1.3-5.16a.7.7 0 0 0-.36-.45L3.85 34l1.07-5.2a.7.7 0 0 0-.13-.56L1.57 24l3.22-4.23a.7.7 0 0 0 .13-.56L3.85 14l4.74-2.4a.7.7 0 0 0 .36-.46L10.24 6l5.3-.12c.21 0 .4-.1.53-.25l3.4-4.08 4.83 2.2c.19.09.4.09.58 0l4.84-2.2 3.4 4.08c.13.16.32.25.52.25l5.3.12 1.3 5.15c.05.2.18.36.36.46l4.74 2.4-1.07 5.2c-.04.2 0 .4.13.56L47.6 24l-3.21 4.23Z"/>
<path fill="#384685" d="M24.15 7.13A16.9 16.9 0 0 0 7.27 24a16.9 16.9 0 0 0 16.88 16.88A16.9 16.9 0 0 0 41.02 24 16.9 16.9 0 0 0 24.15 7.13Zm0 32.35A15.5 15.5 0 0 1 8.66 24 15.5 15.5 0 0 1 24.15 8.52 15.5 15.5 0 0 1 39.63 24a15.5 15.5 0 0 1-15.48 15.48Z"/>
<path fill="#384685" d="m28.38 19 .35-3.08a3.43 3.43 0 0 0-.21-1.65c-.99-2.48-2.64-2.84-3.51-2.78a1.62 1.62 0 0 0-1.57 1.81l.28 2.43c.05.4-.03.8-.2 1.13l-2.47 4.3c-.14.24-.33.45-.54.59l-.13.07a.7.7 0 0 0-.64-.44H14.8a.7.7 0 0 0-.7.7v9.6c0 .38.32.69.7.69h4.94a.7.7 0 0 0 .7-.67l.37.22c.83.5 1.79.75 2.76.75H31.5a2.33 2.33 0 0 0 2.29-2.83 2.34 2.34 0 0 0 1.23-3.3 2.36 2.36 0 0 0 1.08-1.97c0-.64-.28-1.21-.7-1.64.1-.1.23-.18.31-.3A2.34 2.34 0 0 0 33.76 19h-5.38Zm-9.34 11.98H15.5v-8.2h3.54v8.2Zm15.64-9.89c.06.27.01.54-.13.77a.94.94 0 0 1-.6.4H29a.7.7 0 0 0 0 1.39h4.97a.94.94 0 0 1 .47 1.59.94.94 0 0 1-.67.27h-5.08a.7.7 0 0 0 0 1.4h4.82c.28.2.46.52.41.87a.94.94 0 0 1-1.06.81h-.09l-4.42-.02a.7.7 0 0 0 0 1.4h4.02c.06.16.1.31.07.48-.06.49-.48.92-.98.83h-7.88c-.72 0-1.43-.2-2.05-.56l-.72-.42a.92.92 0 0 0-.36-.1v-6.9c.1-.01.2-.03.3-.08l.49-.28a3 3 0 0 0 1.04-1.11l2.46-4.3c.33-.6.45-1.28.37-1.96l-.28-2.43a.23.23 0 0 1 .22-.26c.96.01 1.67.62 2.18 1.9.13.3.17.65.13.98l-.43 3.76a.7.7 0 0 0 .68.87h6.16c.44 0 .82.3.92.7Z"/>
</g>

<g class="sprite" id="insta" viewBox="0 0 64 64">

</g>


</svg>